<svg xmlns="http://www.w3.org/2000/svg" width="960" height="570" viewBox="0 0 960 570">
<rect width="960" height="570" rx="22" fill="#05080B"/>
<rect x="16" y="16" width="928" height="538" rx="18" fill="#0A1016" stroke="#15222C"/>
<text x="48" y="55" fill="#DCE6EE" font-size="19" font-weight="700" font-family="Arial,sans-serif">LANGUAGE ANALYTICS</text>
<text x="48" y="77" fill="#7F929F" font-size="11" font-family="Arial,sans-serif">Repository code distribution · live data snapshot</text>
<line x1="48" y1="94" x2="912" y2="94" stroke="#1B2833"/>
<circle cx="190" cy="205" r="105" fill="none" stroke="#1B2833" stroke-width="28"/>
<path d="M190 100 A105 105 0 1 1 101.6 261.6" stroke="#2FD9E8" stroke-width="28" fill="none" stroke-linecap="round"/>
<path d="M101.6 261.6 A105 105 0 0 1 144.7 108.8" stroke="#FFB84D" stroke-width="28" fill="none" stroke-linecap="round"/>
<path d="M144.7 108.8 A105 105 0 0 1 180.0 100.2" stroke="#8B7CFF" stroke-width="28" fill="none" stroke-linecap="round"/>
<path d="M180.0 100.2 A105 105 0 0 1 194.0 100.1" stroke="#54D17A" stroke-width="28" fill="none" stroke-linecap="round"/>
<path d="M194.0 100.1 A105 105 0 0 1 202.0 100.5" stroke="#FF6B8A" stroke-width="28" fill="none" stroke-linecap="round"/>
<path d="M202 100.5 A105 105 0 1 1 190 100" stroke="#7FD6FF" stroke-width="28" fill="none" stroke-linecap="round"/>
<circle cx="190" cy="205" r="72" fill="#0A1016"/>
<text x="190" y="201" fill="#DCE6EE" font-size="23" font-weight="700" text-anchor="middle" font-family="Arial,sans-serif">44.3%</text>
<text x="190" y="221" fill="#7F929F" font-size="11" text-anchor="middle" font-family="Arial,sans-serif">Java · top language</text>
<circle cx="55" cy="346" r="4" fill="#2FD9E8"/><text x="65" y="350" fill="#7F929F" font-size="11" font-family="Arial,sans-serif">Java</text>
<circle cx="175" cy="346" r="4" fill="#FFB84D"/><text x="185" y="350" fill="#7F929F" font-size="11" font-family="Arial,sans-serif">TypeScript</text>
<circle cx="295" cy="346" r="4" fill="#8B7CFF"/><text x="305" y="350" fill="#7F929F" font-size="11" font-family="Arial,sans-serif">C</text>
<circle cx="55" cy="370" r="4" fill="#54D17A"/><text x="65" y="374" fill="#7F929F" font-size="11" font-family="Arial,sans-serif">Rust</text>
<circle cx="175" cy="370" r="4" fill="#FF6B8A"/><text x="185" y="374" fill="#7F929F" font-size="11" font-family="Arial,sans-serif">CMake</text>
<circle cx="295" cy="370" r="4" fill="#7FD6FF"/><text x="305" y="374" fill="#7F929F" font-size="11" font-family="Arial,sans-serif">Other</text>
<text x="430" y="111" fill="#DCE6EE" font-size="13" font-weight="600" font-family="Arial,sans-serif">Language share</text>
<text x="430" y="128" fill="#DCE6EE" font-size="12" font-family="Arial,sans-serif">Java</text><rect x="515" y="119" width="360" height="9" rx="4.5" fill="#1B2833"/><rect x="515" y="119" width="360" height="9" rx="4.5" fill="#2FD9E8"/><text x="895" y="128" fill="#2FD9E8" font-size="11" text-anchor="end" font-family="Arial,sans-serif">44.30%</text>
<text x="430" y="162" fill="#DCE6EE" font-size="12" font-family="Arial,sans-serif">TypeScript</text><rect x="515" y="153" width="360" height="9" rx="4.5" fill="#1B2833"/><rect x="515" y="153" width="281.9" height="9" rx="4.5" fill="#FFB84D"/><text x="895" y="162" fill="#FFB84D" font-size="11" text-anchor="end" font-family="Arial,sans-serif">34.66%</text>
<text x="430" y="196" fill="#DCE6EE" font-size="12" font-family="Arial,sans-serif">C</text><rect x="515" y="187" width="360" height="9" rx="4.5" fill="#1B2833"/><rect x="515" y="187" width="88.9" height="9" rx="4.5" fill="#8B7CFF"/><text x="895" y="196" fill="#8B7CFF" font-size="11" text-anchor="end" font-family="Arial,sans-serif">10.94%</text>
<text x="430" y="230" fill="#DCE6EE" font-size="12" font-family="Arial,sans-serif">Rust</text><rect x="515" y="221" width="360" height="9" rx="4.5" fill="#1B2833"/><rect x="515" y="221" width="51.9" height="9" rx="4.5" fill="#54D17A"/><text x="895" y="230" fill="#54D17A" font-size="11" text-anchor="end" font-family="Arial,sans-serif">6.39%</text>
<text x="430" y="264" fill="#DCE6EE" font-size="12" font-family="Arial,sans-serif">CMake</text><rect x="515" y="255" width="360" height="9" rx="4.5" fill="#1B2833"/><rect x="515" y="255" width="12.5" height="9" rx="4.5" fill="#FF6B8A"/><text x="895" y="264" fill="#FF6B8A" font-size="11" text-anchor="end" font-family="Arial,sans-serif">1.54%</text>
<text x="430" y="298" fill="#DCE6EE" font-size="12" font-family="Arial,sans-serif">Python</text><rect x="515" y="289" width="360" height="9" rx="4.5" fill="#1B2833"/><rect x="515" y="289" width="12.2" height="9" rx="4.5" fill="#7FD6FF"/><text x="895" y="298" fill="#7FD6FF" font-size="11" text-anchor="end" font-family="Arial,sans-serif">1.50%</text>
<text x="430" y="332" fill="#DCE6EE" font-size="12" font-family="Arial,sans-serif">Tcl</text><rect x="515" y="323" width="360" height="9" rx="4.5" fill="#1B2833"/><rect x="515" y="323" width="2" height="9" rx="4.5" fill="#C58CFF"/><text x="895" y="332" fill="#C58CFF" font-size="11" text-anchor="end" font-family="Arial,sans-serif">0.25%</text>
<text x="430" y="366" fill="#DCE6EE" font-size="12" font-family="Arial,sans-serif">Dockerfile</text><rect x="515" y="357" width="360" height="9" rx="4.5" fill="#1B2833"/><rect x="515" y="357" width="1.1" height="9" rx="4.5" fill="#66E0C2"/><text x="895" y="366" fill="#66E0C2" font-size="11" text-anchor="end" font-family="Arial,sans-serif">0.13%</text>
<text x="430" y="400" fill="#DCE6EE" font-size="12" font-family="Arial,sans-serif">JavaScript</text><rect x="515" y="391" width="360" height="9" rx="4.5" fill="#1B2833"/><rect x="515" y="391" width="1" height="9" rx="4.5" fill="#2FD9E8"/><text x="895" y="400" fill="#2FD9E8" font-size="11" text-anchor="end" font-family="Arial,sans-serif">0.12%</text>
<text x="430" y="434" fill="#DCE6EE" font-size="12" font-family="Arial,sans-serif">HTML</text><rect x="515" y="425" width="360" height="9" rx="4.5" fill="#1B2833"/><rect x="515" y="425" width="0.5" height="9" rx="4.5" fill="#FFB84D"/><text x="895" y="434" fill="#FFB84D" font-size="11" text-anchor="end" font-family="Arial,sans-serif">0.06%</text>
<text x="430" y="468" fill="#DCE6EE" font-size="12" font-family="Arial,sans-serif">CSS</text><rect x="515" y="459" width="360" height="9" rx="4.5" fill="#1B2833"/><rect x="515" y="459" width="0.5" height="9" rx="4.5" fill="#8B7CFF"/><text x="895" y="468" fill="#8B7CFF" font-size="11" text-anchor="end" font-family="Arial,sans-serif">0.06%</text>
<text x="430" y="502" fill="#DCE6EE" font-size="12" font-family="Arial,sans-serif">Makefile</text><rect x="515" y="493" width="360" height="9" rx="4.5" fill="#1B2833"/><rect x="515" y="493" width="0.4" height="9" rx="4.5" fill="#54D17A"/><text x="895" y="502" fill="#54D17A" font-size="11" text-anchor="end" font-family="Arial,sans-serif">0.04%</text>
<text x="48" y="530" fill="#7F929F" font-size="10" font-family="Arial,sans-serif">Generated automatically from GitHub repository language byte counts</text>
<text x="912" y="530" fill="#7F929F" font-size="10" text-anchor="end" font-family="Arial,sans-serif">RifatNSU701</text>
</svg>