<svg xmlns="http://www.w3.org/2000/svg" width="1400" height="1180" viewBox="0 0 1400 1180">
<defs>
 <linearGradient id="bg" x1="0" y1="0" x2="1" y2="1"><stop stop-color="#02080d"/><stop offset=".55" stop-color="#04131d"/><stop offset="1" stop-color="#02070b"/></linearGradient>
 <linearGradient id="cyan" x1="0" x2="1"><stop stop-color="#00eaff"/><stop offset="1" stop-color="#0088ff"/></linearGradient>
 <linearGradient id="green" x1="0" x2="1"><stop stop-color="#00ffae"/><stop offset="1" stop-color="#00c98b"/></linearGradient>
 <filter id="glow"><feGaussianBlur stdDeviation="4" result="b"/><feMerge><feMergeNode in="b"/><feMergeNode in="SourceGraphic"/></feMerge></filter>
 <pattern id="grid" width="32" height="32" patternUnits="userSpaceOnUse"><path d="M32 0H0V32" fill="none" stroke="#0b5268" stroke-opacity=".18"/></pattern>
 <style>
 .t{font-family:Arial,Helvetica,sans-serif;fill:#d9f7ff}.m{font-family:monospace;fill:#79a5b5}.c{fill:#00eaff}.g{fill:#00ffae}.muted{fill:#6f919e}.line{stroke:#08718d;stroke-opacity:.6}.panel{fill:#06141e;fill-opacity:.88;stroke:#08718d;stroke-width:1.2}.small{font-size:13px}.tiny{font-size:10px}.title{font-weight:700;font-size:17px}.value{font-weight:800;font-size:30px}
 </style>
</defs>
<rect width="1400" height="1180" fill="url(#bg)"/>
<rect width="1400" height="1180" fill="url(#grid)"/>
<!-- header -->
<rect x="22" y="20" width="1356" height="54" rx="9" class="panel"/>
<text x="45" y="54" class="t" font-size="19" font-weight="800">◈ RIFAT.KHAN</text>
<text x="310" y="54" class="m small">OVERVIEW</text><text x="410" y="54" class="m small">REPOSITORIES</text><text x="555" y="54" class="m small">PROJECTS</text><text x="650" y="54" class="m small">PACKAGES</text><text x="755" y="54" class="m small">STARS</text>
<rect x="850" y="36" width="300" height="25" rx="6" fill="#020a10" stroke="#12566a"/><text x="866" y="53" class="muted tiny">⌕  Type / to search</text>
<circle cx="1310" cy="47" r="12" fill="none" stroke="#00eaff"/><circle cx="1310" cy="47" r="4" fill="#00ffae" filter="url(#glow)"/>
<!-- sidebar -->
<rect x="22" y="90" width="250" height="1035" rx="12" class="panel"/>
<circle cx="147" cy="205" r="86" fill="#03131d" stroke="#00eaff" stroke-width="2" filter="url(#glow)"/>
<circle cx="147" cy="205" r="72" fill="none" stroke="#00eaff" stroke-opacity=".55"/><path d="M90 240 Q147 155 204 240 L190 270 Q147 290 104 270Z" fill="#02080d" stroke="#0786a5"/>
<path d="M110 205 Q147 175 184 205" fill="none" stroke="#00eaff" stroke-width="2"/><text x="147" y="215" text-anchor="middle" class="c" font-family="monospace" font-size="11">THINK</text><text x="147" y="231" text-anchor="middle" class="c" font-family="monospace" font-size="11">BUILD</text><text x="147" y="247" text-anchor="middle" class="c" font-family="monospace" font-size="11">SECURE</text>
<circle cx="215" cy="265" r="9" fill="#00ffae" filter="url(#glow)"/>
<text x="42" y="324" class="t" font-size="21" font-weight="700">Rifat Khan</text><text x="42" y="348" class="muted small">@RifatNSU701  ✓</text>
<text x="42" y="378" class="m small">Cybersecurity Enthusiast</text><text x="42" y="397" class="m small">Network Security | Threat Detection</text><text x="42" y="416" class="m small">Open Source | Secure Systems</text>
<text x="42" y="452" class="c small">⌖</text><text x="62" y="452" class="m small">Bangladesh</text><text x="42" y="480" class="c small">◈</text><text x="62" y="480" class="m small">rifatkhan.tech</text><text x="42" y="508" class="c small">@</text><text x="62" y="508" class="m small">corps.rifat@outlook.com</text>
<line x1="42" y1="530" x2="252" y2="530" class="line"/><text x="42" y="558" class="t small" font-weight="700">18 followers</text><text x="150" y="558" class="t small">4 following</text>
<rect x="42" y="580" width="210" height="38" rx="6" fill="#063043" stroke="#00a8d0"/><text x="147" y="604" text-anchor="middle" class="t small" font-weight="700">VIEW GITHUB ↗</text>
<rect x="42" y="636" width="210" height="58" rx="7" fill="#031018" stroke="#0a4d60"/><text x="147" y="661" text-anchor="middle" class="m small">“Better Systems.</text><text x="147" y="680" text-anchor="middle" class="m small">Safer People.”</text>
<text x="42" y="724" class="c tiny">NAVIGATION</text>
<g class="m small"><text x="50" y="754">◉  About Me</text><text x="50" y="782">◌  Skills</text><text x="50" y="810">⌂  Education</text><text x="50" y="838">◫  Experience</text><text x="50" y="866">✓  Certifications</text><text x="50" y="894">▣  Projects</text><text x="50" y="922">◒  GitHub Stats</text><text x="50" y="950">▦  Contributions</text><text x="50" y="978">◌  Activity</text><text x="50" y="1006">⌘  Organizations</text><text x="50" y="1034">✉  Contact</text></g>
<text x="42" y="1070" class="c tiny">CURRENTLY</text><circle cx="50" cy="1092" r="4" fill="#00ffae"/><text x="62" y="1096" class="m tiny">Learning Advanced Threat Hunting</text><circle cx="50" cy="1112" r="4" fill="#00ffae"/><text x="62" y="1116" class="m tiny">Building Lab &amp; Tools</text>
<!-- hero -->
<rect x="290" y="90" width="1088" height="300" rx="12" class="panel"/>
<text x="320" y="135" class="c tiny">CYBERSECURITY  |  NETWORK INTELLIGENCE</text>
<text x="320" y="195" class="t" font-size="58" font-weight="900">RIFAT <tspan class="c">KHAN</tspan></text>
<text x="320" y="222" class="c" font-family="monospace" font-size="12" font-weight="700">CYBERSECURITY  |  NETWORKING  |  INFRASTRUCTURE  |  OPEN SOURCE</text>
<text x="320" y="253" class="m small">“Building secure systems through knowledge, practice and innovation.”</text>
<!-- hero icon row -->
<g transform="translate(320 275)"><circle cx="10" cy="10" r="9" fill="none" stroke="#00eaff"/><path d="M10 4v12M4 10h12" stroke="#00eaff"/><text x="0" y="34" class="m tiny">Detect</text><path d="M72 3v15M64 10h16M69 6v8M76 7v6" stroke="#00eaff"/><text x="62" y="34" class="m tiny">Analyse</text><path d="M132 3l9 3v6c0 5-4 8-9 10-5-2-9-5-9-10V6Z" fill="none" stroke="#00eaff"/><text x="123" y="34" class="m tiny">Secure</text><rect x="184" y="4" width="18" height="14" rx="2" fill="none" stroke="#00eaff"/><path d="M185 5l16 12" stroke="#00eaff"/><text x="181" y="34" class="m tiny">Automate</text><path d="M245 14q9-9 18 0M247 9q7-7 14 0" fill="none" stroke="#00eaff"/><text x="249" y="34" class="m tiny">Learn</text><path d="M315 5a9 9 0 1 0 2 12" fill="none" stroke="#00eaff"/><path d="M318 5v7h-7" fill="none" stroke="#00eaff"/><text x="310" y="34" class="m tiny">Repeat</text></g>
<!-- globe -->
<g transform="translate(1100 238)"><circle r="105" fill="#03151f" stroke="#00aee0" stroke-width="1.5"/><ellipse rx="105" ry="36" fill="none" stroke="#00aee0" stroke-opacity=".4"/><ellipse rx="105" ry="70" fill="none" stroke="#00aee0" stroke-opacity=".3"/><ellipse rx="38" ry="105" fill="none" stroke="#00aee0" stroke-opacity=".35"/><ellipse rx="70" ry="105" fill="none" stroke="#00aee0" stroke-opacity=".25"/><path d="M-82-22Q-35-65 5-48T77-12Q54 15 20 5T-20 28Q-45 40-65 14Z" fill="#00617b" fill-opacity=".35" stroke="#00dfff" stroke-opacity=".6"/><path d="M-25 38q25-16 48 4t35 8" fill="none" stroke="#00dfff" stroke-opacity=".55"/>
<g fill="#00eaff" filter="url(#glow)"><circle cx="-52" cy="-24" r="3"/><circle cx="8" cy="-48" r="3"/><circle cx="48" cy="-10" r="3"/><circle cx="-10" cy="32" r="3"/><circle cx="55" cy="48" r="2.5"/></g><path d="M-52-24Q8-48 48-10T55 48" fill="none" stroke="#00ffae" stroke-opacity=".7"/><path d="M-52-24Q-10 32 55 48" fill="none" stroke="#00eaff" stroke-opacity=".55"/><circle r="117" fill="none" stroke="#00eaff" stroke-opacity=".55" stroke-dasharray="100 20 40 18" filter="url(#glow)"/></g>
<!-- stats -->
<g><rect x="290" y="405" width="265" height="92" rx="9" class="panel"/><rect x="565" y="405" width="265" height="92" rx="9" class="panel"/><rect x="840" y="405" width="265" height="92" rx="9" class="panel"/><rect x="1115" y="405" width="263" height="92" rx="9" class="panel"/>
<text x="315" y="440" class="c" font-size="30">▣</text><text x="355" y="434" class="muted tiny">PUBLIC REPOSITORIES</text><text x="355" y="466" class="value">8</text>
<text x="590" y="440" class="g" font-size="30">★</text><text x="630" y="434" class="muted tiny">TOTAL STARS</text><text x="630" y="466" class="value">24</text>
<text x="865" y="440" class="c" font-size="30">⑂</text><text x="905" y="434" class="muted tiny">TOTAL FORKS</text><text x="905" y="466" class="value">1</text>
<text x="1140" y="440" class="g" font-size="30">♙</text><text x="1180" y="434" class="muted tiny">FOLLOWERS</text><text x="1180" y="466" class="value">18</text></g>
<!-- about / education -->
<rect x="290" y="512" width="650" height="205" rx="10" class="panel"/><text x="315" y="545" class="c title">◉  ABOUT ME</text><line x1="315" y1="558" x2="915" y2="558" class="line"/><text x="315" y="584" class="m small">Computer Science student, cybersecurity enthusiast and network</text><text x="315" y="603" class="m small">security learner. Passionate about secure systems, infrastructure,</text><text x="315" y="622" class="m small">threat detection, automation and practical security research.</text><g class="m small"><text x="315" y="651" class="g">✓</text><text x="337" y="651">Currently learning: Advanced Networking, Threat Hunting, Cloud Security</text><text x="315" y="676" class="g">✓</text><text x="337" y="676">Interested in: Cybersecurity, Networking, Infrastructure, Research</text><text x="315" y="701" class="g">✓</text><text x="337" y="701">Building labs and real-world security tooling</text></g>
<rect x="955" y="512" width="423" height="205" rx="10" class="panel"/><text x="980" y="545" class="c title">⌂  EDUCATION</text><line x1="980" y1="558" x2="1353" y2="558" class="line"/><rect x="980" y="578" width="54" height="54" rx="8" fill="#05283a" stroke="#00eaff"/><text x="1007" y="612" text-anchor="middle" class="c" font-weight="800">NSU</text><text x="1050" y="594" class="t small" font-weight="700">BSc in Computer Science &amp; Engineering</text><text x="1050" y="614" class="m small">North South University (NSU)</text><text x="1050" y="634" class="g tiny">2022 — Present</text><text x="980" y="662" class="muted tiny">RELEVANT COURSEWORK</text><text x="980" y="684" class="m tiny">Networking · Operating Systems · Database Systems</text><text x="980" y="700" class="m tiny">Algorithms · Web Development · Cybersecurity</text>
<!-- skills with logos -->
<rect x="290" y="732" width="650" height="270" rx="10" class="panel"/><text x="315" y="765" class="c title">⌘  SKILLS &amp; TECHNOLOGIES</text><text x="805" y="765" class="muted tiny">PROGRAMMING</text><line x1="315" y1="778" x2="915" y2="778" class="line"/>
<g transform="translate(315 800)"><g><rect width="112" height="82" rx="7" class="panel"/><text x="56" y="35" text-anchor="middle" font-size="29" font-weight="900" fill="#ffd343">Py</text><text x="56" y="56" text-anchor="middle" class="t tiny">Python</text><rect x="12" y="67" width="88" height="5" rx="2" fill="#073c50"/><rect x="12" y="67" width="79" height="5" rx="2" fill="#00eaff"/></g>
<g transform="translate(122)"><rect width="112" height="82" rx="7" class="panel"/><text x="56" y="37" text-anchor="middle" font-size="30" font-weight="900" fill="#659ad2">C++</text><text x="56" y="56" text-anchor="middle" class="t tiny">C / C++</text><rect x="12" y="67" width="88" height="5" rx="2" fill="#073c50"/><rect x="12" y="67" width="70" height="5" rx="2" fill="#00eaff"/></g>
<g transform="translate(244)"><rect width="112" height="82" rx="7" class="panel"/><text x="56" y="37" text-anchor="middle" font-size="28" font-weight="900" fill="#f89820">☕</text><text x="56" y="56" text-anchor="middle" class="t tiny">Java</text><rect x="12" y="67" width="88" height="5" rx="2" fill="#073c50"/><rect x="12" y="67" width="66" height="5" rx="2" fill="#00eaff"/></g>
<g transform="translate(366)"><rect width="112" height="82" rx="7" class="panel"/><text x="56" y="37" text-anchor="middle" font-size="27" font-weight="900" fill="#f7df1e">JS</text><text x="56" y="56" text-anchor="middle" class="t tiny">JavaScript</text><rect x="12" y="67" width="88" height="5" rx="2" fill="#073c50"/><rect x="12" y="67" width="70" height="5" rx="2" fill="#00eaff"/></g>
<g transform="translate(0 92)"><rect width="112" height="82" rx="7" class="panel"/><text x="56" y="37" text-anchor="middle" font-size="27" font-weight="900" fill="#ff7b62">&lt;/&gt;</text><text x="56" y="56" text-anchor="middle" class="t tiny">HTML / CSS</text></g><g transform="translate(122 92)"><rect width="112" height="82" rx="7" class="panel"/><text x="56" y="37" text-anchor="middle" font-size="27" font-weight="900" fill="#a8b5bd">C#</text><text x="56" y="56" text-anchor="middle" class="t tiny">C#</text></g><g transform="translate(244 92)"><rect width="112" height="82" rx="7" class="panel"/><text x="56" y="37" text-anchor="middle" font-size="27" font-weight="900" fill="#f05252">R</text><text x="56" y="56" text-anchor="middle" class="t tiny">Rust</text></g><g transform="translate(366 92)"><rect width="112" height="82" rx="7" class="panel"/><text x="56" y="37" text-anchor="middle" font-size="27" font-weight="900" fill="#7f7f7f">PL</text><text x="56" y="56" text-anchor="middle" class="t tiny">Perl</text></g></g>
<!-- stack -->
<rect x="955" y="732" width="423" height="270" rx="10" class="panel"/><text x="980" y="765" class="c title">◈  CYBERSECURITY STACK</text><line x1="980" y1="778" x2="1353" y2="778" class="line"/>
<g class="t small"><text x="985" y="810">⌬  Kali Linux</text><text x="1100" y="810">◉  Wireshark</text><text x="1215" y="810">◈  Wazuh</text><text x="1285" y="810">Σ  Splunk</text><text x="985" y="844">M  Metasploit</text><text x="1100" y="844">⌕  Nmap</text><text x="1215" y="844">B  Burp Suite</text><text x="1285" y="844">P  pfSense</text></g>
<!-- actual graph -->
<rect x="975" y="870" width="380" height="108" rx="7" fill="#020b12" stroke="#0a5e75"/>
<g stroke="#0b5268" stroke-opacity=".28"><path d="M985 900H1345M985 930H1345M985 960H1345"/><path d="M1030 875V973M1080 875V973M1130 875V973M1180 875V973M1230 875V973M1280 875V973M1330 875V973"/></g>
<g stroke="#00bfe8" stroke-opacity=".55" fill="none"><path d="M1005 930L1050 905L1100 945L1150 895L1200 920L1250 888L1305 935L1330 900"/><path d="M1005 945L1050 960L1100 925L1150 950L1200 900L1250 940L1305 910"/></g>
<g fill="#00ffae" filter="url(#glow)"><circle cx="1050" cy="905" r="3"/><circle cx="1150" cy="895" r="3"/><circle cx="1250" cy="888" r="3"/><circle cx="1330" cy="900" r="3"/></g>
<!-- projects -->
<rect x="290" y="1017" width="1088" height="145" rx="10" class="panel"/><text x="315" y="1050" class="c title">▣  FEATURED PROJECTS</text><line x1="315" y1="1062" x2="1353" y2="1062" class="line"/>
<g><rect x="315" y="1080" width="250" height="64" rx="7" fill="#031018" stroke="#0a5e75"/><text x="335" y="1105" class="c small">◈</text><text x="365" y="1102" class="t small" font-weight="700">NetWatch</text><text x="365" y="1120" class="m tiny">Network monitoring &amp; threat analysis</text><text x="510" y="1139" class="g tiny">★ 2   ⑂ 0</text>
<rect x="580" y="1080" width="250" height="64" rx="7" fill="#031018" stroke="#0a5e75"/><text x="600" y="1105" class="g small">◉</text><text x="630" y="1102" class="t small" font-weight="700">ThreatLens</text><text x="630" y="1120" class="m tiny">Open-source threat intelligence</text><text x="775" y="1139" class="g tiny">★ 1   ⑂ 0</text>
<rect x="845" y="1080" width="250" height="64" rx="7" fill="#031018" stroke="#0a5e75"/><text x="865" y="1105" class="c small">◆</text><text x="895" y="1102" class="t small" font-weight="700">AutoRecon</text><text x="895" y="1120" class="m tiny">Automated reconnaissance tooling</text><text x="1040" y="1139" class="g tiny">★ 0   ⑂ 0</text>
<rect x="1110" y="1080" width="243" height="64" rx="7" fill="#031018" stroke="#0a5e75"/><text x="1130" y="1105" class="c small">◉</text><text x="1160" y="1102" class="t small" font-weight="700">Olympus</text><text x="1160" y="1120" class="m tiny">Secure software platform</text><text x="1290" y="1139" class="g tiny">★ 1</text></g>
</svg>
