<svg xmlns="http://www.w3.org/2000/svg" viewBox="0 0 1200 500" role="img" aria-labelledby="title desc">
<title id="title">Skills and Technologies</title>
<desc id="desc">Simple animated technology logos grouped by cybersecurity, networking, Linux systems, IoT and programming.</desc>
<defs>
<style>
.logo{animation:float 4s ease-in-out infinite}
.d2{animation-delay:-1s}.d3{animation-delay:-2s}.d4{animation-delay:-3s}
@keyframes float{0%,100%{transform:translateY(0)}50%{transform:translateY(-7px)}}
</style>
</defs>
<rect width="1200" height="500" rx="18" fill="#0B1016"/>
<g font-family="Inter,Segoe UI,Arial,sans-serif">
<text x="600" y="42" text-anchor="middle" font-size="24" font-weight="700" fill="#E7EEF5">Skills &amp; Technologies</text>

<text x="70" y="88" font-size="13" font-weight="700" fill="#2FD9E8">CYBERSECURITY</text>
<line x1="70" y1="99" x2="1130" y2="99" stroke="#24333E"/>

<!-- cybersecurity -->
<g class="logo"><circle cx="120" cy="150" r="30" fill="#10232A"/><path d="M120 124l20 9v17c0 15-10 25-20 30-10-5-20-15-20-30v-17z" fill="#2FD9E8"/><path d="M111 150l7 7 13-15" fill="none" stroke="#0B1016" stroke-width="4"/><text x="120" y="198" text-anchor="middle" font-size="12" fill="#C9D5DF">Wazuh</text></g>
<g class="logo d2"><circle cx="260" cy="150" r="30" fill="#10232A"/><text x="260" y="160" text-anchor="middle" font-size="26" font-weight="800" fill="#2F9BF4">&gt;_</text><text x="260" y="198" text-anchor="middle" font-size="12" fill="#C9D5DF">Splunk</text></g>
<g class="logo d3"><circle cx="400" cy="150" r="30" fill="#10232A"/><circle cx="388" cy="143" r="11" fill="#F6C343"/><circle cx="410" cy="143" r="11" fill="#43A047"/><circle cx="388" cy="160" r="11" fill="#29B6F6"/><circle cx="410" cy="160" r="11" fill="#8E6BC8"/><text x="400" y="198" text-anchor="middle" font-size="12" fill="#C9D5DF">Elastic</text></g>
<g class="logo d4"><circle cx="540" cy="150" r="30" fill="#10232A"/><path d="M515 150q25-25 50 0-25 25-50 0Z" fill="none" stroke="#39C98A" stroke-width="4"/><circle cx="540" cy="150" r="7" fill="#39C98A"/><text x="540" y="198" text-anchor="middle" font-size="12" fill="#C9D5DF">Nmap</text></g>
<g class="logo"><circle cx="680" cy="150" r="30" fill="#10232A"/><path d="M657 126h46v43q-23 16-46 0z" fill="#F06B78"/><text x="680" y="158" text-anchor="middle" font-size="24" font-weight="900" fill="#0B1016">M</text><text x="680" y="198" text-anchor="middle" font-size="12" fill="#C9D5DF">Metasploit</text></g>
<g class="logo d2"><circle cx="820" cy="150" r="30" fill="#10232A"/><rect x="795" y="125" width="50" height="50" rx="9" fill="#FFB52E"/><text x="820" y="159" text-anchor="middle" font-size="28" font-weight="900" fill="#0B1016">ϟ</text><text x="820" y="198" text-anchor="middle" font-size="12" fill="#C9D5DF">Burp Suite</text></g>
<g class="logo d3"><circle cx="960" cy="150" r="30" fill="#10232A"/><text x="960" y="159" text-anchor="middle" font-size="27" font-weight="900" fill="#2FD9E8">pf</text><text x="960" y="198" text-anchor="middle" font-size="12" fill="#C9D5DF">pfSense</text></g>
<g class="logo d4"><circle cx="1080" cy="150" r="30" fill="#10232A"/><path d="M1054 165q10-35 48-30-18 12-22 34z" fill="#2F9BF4"/><text x="1080" y="198" text-anchor="middle" font-size="12" fill="#C9D5DF">Wireshark</text></g>

<text x="70" y="245" font-size="13" font-weight="700" fill="#4EA8FF">NETWORKING &amp; LINUX</text>
<line x1="70" y1="256" x2="1130" y2="256" stroke="#24333E"/>

<g class="logo d2"><circle cx="120" cy="310" r="30" fill="#10232A"/><text x="120" y="318" text-anchor="middle" font-size="20" font-weight="800" fill="#4EA8FF">CISCO</text><text x="120" y="358" text-anchor="middle" font-size="12" fill="#C9D5DF">Cisco IOS</text></g>
<g class="logo d3"><circle cx="260" cy="310" r="30" fill="#10232A"/><path d="M260 285l25 14v28l-25 14-25-14v-28z" fill="none" stroke="#4EA8FF" stroke-width="4"/><text x="260" y="318" text-anchor="middle" font-size="15" font-weight="800" fill="#4EA8FF">PT</text><text x="260" y="358" text-anchor="middle" font-size="12" fill="#C9D5DF">Packet Tracer</text></g>
<g class="logo d4"><circle cx="400" cy="310" r="30" fill="#10232A"/><path d="M375 330q18-48 42-18 16-24 16 12-20 19-58 6z" fill="#39C98A"/><text x="400" y="358" text-anchor="middle" font-size="12" fill="#C9D5DF">Kali Linux</text></g>
<g class="logo"><circle cx="540" cy="310" r="30" fill="#10232A"/><circle cx="540" cy="310" r="25" fill="none" stroke="#F06B78" stroke-width="7"/><circle cx="558" cy="310" r="5" fill="#F06B78"/><circle cx="528" cy="294" r="5" fill="#F06B78"/><circle cx="528" cy="326" r="5" fill="#F06B78"/><text x="540" y="358" text-anchor="middle" font-size="12" fill="#C9D5DF">Ubuntu</text></g>
<g class="logo d2"><circle cx="680" cy="310" r="30" fill="#10232A"/><ellipse cx="680" cy="319" rx="19" ry="24" fill="#F6C343"/><circle cx="680" cy="296" r="15" fill="#111A24"/><circle cx="675" cy="294" r="2.5" fill="#fff"/><circle cx="685" cy="294" r="2.5" fill="#fff"/><text x="680" y="358" text-anchor="middle" font-size="12" fill="#C9D5DF">Linux</text></g>
<g class="logo d3"><circle cx="820" cy="310" r="30" fill="#10232A"/><text x="820" y="319" text-anchor="middle" font-size="24" font-weight="800" fill="#2FD9E8">$_</text><text x="820" y="358" text-anchor="middle" font-size="12" fill="#C9D5DF">Bash</text></g>
<g class="logo d4"><circle cx="960" cy="310" r="30" fill="#10232A"/><rect x="938" y="290" width="44" height="38" rx="7" fill="none" stroke="#2F9BF4" stroke-width="3"/><text x="960" y="316" text-anchor="middle" font-size="19" font-weight="800" fill="#2F9BF4">›_</text><text x="960" y="358" text-anchor="middle" font-size="12" fill="#C9D5DF">SSH</text></g>
<g class="logo"><circle cx="1080" cy="310" r="30" fill="#10232A"/><path d="M1080 285l25 14v22l-25 14-25-14v-22z" fill="none" stroke="#9B63FF" stroke-width="4"/><text x="1080" y="318" text-anchor="middle" font-size="15" font-weight="800" fill="#9B63FF">VB</text><text x="1080" y="358" text-anchor="middle" font-size="12" fill="#C9D5DF">VirtualBox</text></g>

<text x="70" y="405" font-size="13" font-weight="700" fill="#B064FF">IoT &amp; PROGRAMMING</text>
<line x1="70" y1="416" x2="1130" y2="416" stroke="#24333E"/>
<g class="logo d3"><circle cx="170" cy="460" r="30" fill="#10232A"/><circle cx="170" cy="460" r="5" fill="#B064FF"/><path d="M170 449a11 11 0 0 1 0 22M170 439a21 21 0 0 1 0 42" fill="none" stroke="#B064FF" stroke-width="3"/><text x="170" y="494" text-anchor="middle" font-size="12" fill="#C9D5DF">MQTT</text></g>
<g class="logo d4"><circle cx="330" cy="460" r="30" fill="#10232A"/><text x="330" y="474" text-anchor="middle" font-size="42" font-weight="700" fill="#39C98A">ᛒ</text><text x="330" y="494" text-anchor="middle" font-size="12" fill="#C9D5DF">Bluetooth</text></g>
<g class="logo"><circle cx="490" cy="460" r="30" fill="#10232A"/><rect x="467" y="437" width="46" height="46" rx="7" transform="rotate(45 490 460)" fill="#F06B78"/><circle cx="490" cy="460" r="5" fill="#0B1016"/><text x="490" y="494" text-anchor="middle" font-size="12" fill="#C9D5DF">Git</text></g>
<g class="logo d2"><circle cx="650" cy="460" r="30" fill="#10232A"/><text x="650" y="469" text-anchor="middle" font-size="27" font-weight="800" fill="#4EA8FF">J</text><text x="650" y="494" text-anchor="middle" font-size="12" fill="#C9D5DF">Java</text></g>
<g class="logo d3"><circle cx="810" cy="460" r="30" fill="#10232A"/><text x="810" y="469" text-anchor="middle" font-size="25" font-weight="800" fill="#4EA8FF">C++</text><text x="810" y="494" text-anchor="middle" font-size="12" fill="#C9D5DF">C++</text></g>
<g class="logo d4"><circle cx="970" cy="460" r="30" fill="#10232A"/><text x="970" y="469" text-anchor="middle" font-size="25" font-weight="800" fill="#FFC43D">Py</text><text x="970" y="494" text-anchor="middle" font-size="12" fill="#C9D5DF">Python</text></g>
</g>
</svg>